<svg width="177" height="34" viewBox="0 0 177 34" fill="none" xmlns="http://www.w3.org/2000/svg">
<path d="M13.9433 2.25476C14.1637 1.92808 14.532 1.73227 14.9261 1.73227H30.3303C31.2802 1.73227 31.8444 2.79349 31.3131 3.58091L19.4848 21.1129C19.2644 21.4396 18.896 21.6354 18.502 21.6354H3.0977C2.14783 21.6354 1.58365 20.5742 2.1149 19.7868L13.9433 2.25476Z" fill="url(#paint0_linear_1_232)"/>
<path d="M15.7291 23.4802C15.3351 23.4802 14.9667 23.676 14.7463 24.0027L11.145 29.3406C10.6138 30.128 11.178 31.1892 12.1278 31.1892H28.3985C28.7926 31.1892 29.1609 30.9934 29.3813 30.6667L41.2097 13.1347C41.7409 12.3473 41.1767 11.286 40.2269 11.286H28.9674C28.5733 11.286 28.205 11.4819 27.9845 11.8085L20.4625 22.9577C20.2421 23.2844 19.8738 23.4802 19.4797 23.4802H15.7291Z" fill="url(#paint1_linear_1_232)"/>
<path d="M66.6284 23.8943L63.383 18.1622H61.9921V23.8943H59.0418V9.18467H64.5631C65.7011 9.18467 66.6705 9.38839 67.4713 9.79582C68.2722 10.1892 68.8693 10.7301 69.2626 11.4185C69.6701 12.0929 69.8738 12.8515 69.8738 13.6945C69.8738 14.6639 69.5928 15.542 69.0308 16.3288C68.4689 17.1015 67.6329 17.6353 66.523 17.9304L70.0424 23.8943H66.6284ZM61.9921 15.9494H64.4578C65.2586 15.9494 65.8557 15.7598 66.2491 15.3804C66.6424 14.987 66.8391 14.4461 66.8391 13.7577C66.8391 13.0834 66.6424 12.5635 66.2491 12.1983C65.8557 11.8189 65.2586 11.6293 64.4578 11.6293H61.9921V15.9494ZM83.3954 17.8039C83.3954 18.2254 83.3673 18.6047 83.3111 18.9419H74.7761C74.8464 19.7849 75.1414 20.4452 75.6612 20.9229C76.1811 21.4006 76.8203 21.6394 77.579 21.6394C78.6748 21.6394 79.4545 21.1687 79.9182 20.2274H83.1003C82.7632 21.3514 82.1169 22.2786 81.1615 23.0092C80.2062 23.7257 79.0331 24.084 77.6422 24.084C76.5182 24.084 75.5067 23.8381 74.6075 23.3464C73.7224 22.8406 73.027 22.1311 72.5212 21.2179C72.0295 20.3047 71.7836 19.251 71.7836 18.0568C71.7836 16.8486 72.0295 15.7879 72.5212 14.8746C73.0129 13.9614 73.7013 13.259 74.5865 12.7673C75.4716 12.2755 76.4901 12.0297 77.6422 12.0297C78.7521 12.0297 79.7426 12.2685 80.6136 12.7462C81.4987 13.2239 82.1801 13.9052 82.6578 14.7904C83.1495 15.6614 83.3954 16.6659 83.3954 17.8039ZM80.3397 16.961C80.3256 16.2023 80.0516 15.5982 79.5178 15.1486C78.9839 14.685 78.3306 14.4532 77.5579 14.4532C76.8273 14.4532 76.2092 14.678 75.7034 15.1275C75.2117 15.5631 74.9096 16.1742 74.7972 16.961H80.3397ZM84.7902 18.0568C84.7902 16.8486 85.0361 15.7949 85.5278 14.8957C86.0195 13.9825 86.7009 13.2801 87.572 12.7883C88.443 12.2825 89.4405 12.0297 90.5645 12.0297C92.0116 12.0297 93.2058 12.3949 94.1471 13.1255C95.1024 13.842 95.7417 14.8536 96.0648 16.1602H92.8826C92.714 15.6544 92.426 15.261 92.0186 14.98C91.6252 14.685 91.1335 14.5375 90.5434 14.5375C89.7005 14.5375 89.0331 14.8465 88.5414 15.4647C88.0497 16.0688 87.8038 16.9329 87.8038 18.0568C87.8038 19.1667 88.0497 20.0308 88.5414 20.6489C89.0331 21.253 89.7005 21.5551 90.5434 21.5551C91.7376 21.5551 92.5173 21.0212 92.8826 19.9535H96.0648C95.7417 21.2179 95.1024 22.2224 94.1471 22.9671C93.1917 23.7117 91.9975 24.084 90.5645 24.084C89.4405 24.084 88.443 23.8381 87.572 23.3464C86.7009 22.8406 86.0195 22.1382 85.5278 21.239C85.0361 20.3258 84.7902 19.2651 84.7902 18.0568ZM103.41 24.084C102.286 24.084 101.275 23.8381 100.376 23.3464C99.4766 22.8406 98.7671 22.1311 98.2473 21.2179C97.7415 20.3047 97.4886 19.251 97.4886 18.0568C97.4886 16.8626 97.7485 15.8089 98.2684 14.8957C98.8022 13.9825 99.5258 13.2801 100.439 12.7883C101.352 12.2825 102.371 12.0297 103.495 12.0297C104.619 12.0297 105.637 12.2825 106.55 12.7883C107.464 13.2801 108.18 13.9825 108.7 14.8957C109.234 15.8089 109.501 16.8626 109.501 18.0568C109.501 19.251 109.227 20.3047 108.679 21.2179C108.145 22.1311 107.414 22.8406 106.487 23.3464C105.574 23.8381 104.548 24.084 103.41 24.084ZM103.41 21.513C103.944 21.513 104.443 21.3865 104.907 21.1336C105.384 20.8667 105.764 20.4733 106.045 19.9535C106.326 19.4337 106.466 18.8014 106.466 18.0568C106.466 16.9469 106.171 16.0969 105.581 15.5069C105.005 14.9027 104.296 14.6007 103.453 14.6007C102.61 14.6007 101.9 14.9027 101.324 15.5069C100.762 16.0969 100.481 16.9469 100.481 18.0568C100.481 19.1667 100.755 20.0237 101.303 20.6278C101.865 21.2179 102.567 21.513 103.41 21.513ZM118.135 12.0507C119.526 12.0507 120.65 12.4933 121.507 13.3784C122.364 14.2495 122.792 15.4717 122.792 17.0453V23.8943H119.842V17.4457C119.842 16.5184 119.61 15.8089 119.146 15.3172C118.683 14.8114 118.05 14.5585 117.25 14.5585C116.435 14.5585 115.788 14.8114 115.311 15.3172C114.847 15.8089 114.615 16.5184 114.615 17.4457V23.8943H111.665V12.2193H114.615V13.6734C115.009 13.1677 115.507 12.7743 116.112 12.4933C116.73 12.1983 117.404 12.0507 118.135 12.0507ZM130.065 24.084C129.11 24.084 128.253 23.9154 127.494 23.5782C126.736 23.227 126.132 22.7563 125.682 22.1663C125.246 21.5762 125.008 20.9229 124.965 20.2064H127.937C127.993 20.6559 128.211 21.0283 128.59 21.3233C128.984 21.6183 129.468 21.7658 130.044 21.7658C130.606 21.7658 131.042 21.6534 131.351 21.4287C131.674 21.2039 131.836 20.9159 131.836 20.5646C131.836 20.1853 131.639 19.9043 131.246 19.7217C130.866 19.525 130.255 19.3142 129.412 19.0894C128.541 18.8787 127.825 18.6609 127.263 18.4362C126.715 18.2114 126.237 17.8672 125.83 17.4035C125.436 16.9399 125.239 16.3147 125.239 15.5279C125.239 14.8817 125.422 14.2916 125.787 13.7577C126.167 13.2239 126.701 12.8024 127.389 12.4933C128.091 12.1842 128.913 12.0297 129.855 12.0297C131.246 12.0297 132.355 12.3809 133.184 13.0834C134.013 13.7718 134.47 14.7061 134.554 15.8862H131.73C131.688 15.4226 131.491 15.0573 131.14 14.7904C130.803 14.5094 130.346 14.3689 129.77 14.3689C129.236 14.3689 128.822 14.4672 128.527 14.6639C128.246 14.8606 128.106 15.1346 128.106 15.4858C128.106 15.8792 128.302 16.1812 128.696 16.392C129.089 16.5887 129.7 16.7924 130.529 17.0031C131.372 17.2139 132.067 17.4316 132.615 17.6564C133.163 17.8812 133.634 18.2324 134.027 18.7101C134.435 19.1737 134.645 19.7919 134.66 20.5646C134.66 21.239 134.47 21.8431 134.091 22.377C133.725 22.9109 133.191 23.3323 132.489 23.6414C131.8 23.9365 130.993 24.084 130.065 24.084ZM148.251 12.2193L141.022 29.4157H137.882L140.411 23.5993L135.733 12.2193H139.041L142.055 20.375L145.111 12.2193H148.251ZM149.082 18.0147C149.082 16.8345 149.314 15.7879 149.778 14.8746C150.255 13.9614 150.902 13.259 151.717 12.7673C152.531 12.2755 153.438 12.0297 154.435 12.0297C155.194 12.0297 155.917 12.1983 156.606 12.5354C157.294 12.8586 157.842 13.2941 158.25 13.842V8.29956H161.242V23.8943H158.25V22.1663C157.884 22.7423 157.371 23.2059 156.711 23.5571C156.051 23.9084 155.285 24.084 154.414 24.084C153.431 24.084 152.531 23.8311 151.717 23.3253C150.902 22.8195 150.255 22.1101 149.778 21.1968C149.314 20.2696 149.082 19.2089 149.082 18.0147ZM158.271 18.0568C158.271 17.3403 158.13 16.7292 157.849 16.2234C157.568 15.7036 157.189 15.3102 156.711 15.0432C156.233 14.7623 155.721 14.6218 155.173 14.6218C154.625 14.6218 154.119 14.7552 153.655 15.0222C153.192 15.2891 152.812 15.6825 152.517 16.2023C152.236 16.7081 152.096 17.3122 152.096 18.0147C152.096 18.7171 152.236 19.3353 152.517 19.8692C152.812 20.389 153.192 20.7894 153.655 21.0704C154.133 21.3514 154.639 21.4919 155.173 21.4919C155.721 21.4919 156.233 21.3584 156.711 21.0915C157.189 20.8105 157.568 20.4171 157.849 19.9113C158.13 19.3915 158.271 18.7733 158.271 18.0568ZM174.977 17.8039C174.977 18.2254 174.949 18.6047 174.892 18.9419H166.357C166.428 19.7849 166.723 20.4452 167.243 20.9229C167.762 21.4006 168.402 21.6394 169.16 21.6394C170.256 21.6394 171.036 21.1687 171.499 20.2274H174.682C174.344 21.3514 173.698 22.2786 172.743 23.0092C171.788 23.7257 170.614 24.084 169.223 24.084C168.1 24.084 167.088 23.8381 166.189 23.3464C165.304 22.8406 164.608 22.1311 164.103 21.2179C163.611 20.3047 163.365 19.251 163.365 18.0568C163.365 16.8486 163.611 15.7879 164.103 14.8746C164.594 13.9614 165.283 13.259 166.168 12.7673C167.053 12.2755 168.071 12.0297 169.223 12.0297C170.333 12.0297 171.324 12.2685 172.195 12.7462C173.08 13.2239 173.761 13.9052 174.239 14.7904C174.731 15.6614 174.977 16.6659 174.977 17.8039ZM171.921 16.961C171.907 16.2023 171.633 15.5982 171.099 15.1486C170.565 14.685 169.912 14.4532 169.139 14.4532C168.409 14.4532 167.79 14.678 167.285 15.1275C166.793 15.5631 166.491 16.1742 166.379 16.961H171.921Z" fill="#173076"/>
<defs>
<linearGradient id="paint0_linear_1_232" x1="15.5619" y1="3.65502" x2="27.3655" y2="29.6955" gradientUnits="userSpaceOnUse">
<stop stop-color="#FF9900"/>
<stop offset="1" stop-color="#FF9900" stop-opacity="0"/>
</linearGradient>
<linearGradient id="paint1_linear_1_232" x1="28.0135" y1="29.7376" x2="14.9476" y2="3.71164" gradientUnits="userSpaceOnUse">
<stop stop-color="#0021AF"/>
<stop offset="1" stop-color="#0017A5" stop-opacity="0"/>
</linearGradient>
</defs>
</svg>
