<svg width="44" height="34" viewBox="0 0 44 34" fill="none" xmlns="http://www.w3.org/2000/svg">
<path d="M13.9433 2.25476C14.1637 1.92808 14.532 1.73227 14.9261 1.73227H30.3303C31.2802 1.73227 31.8444 2.79349 31.3131 3.58091L19.4848 21.1129C19.2644 21.4396 18.896 21.6354 18.502 21.6354H3.0977C2.14783 21.6354 1.58365 20.5742 2.1149 19.7868L13.9433 2.25476Z" fill="url(#paint0_linear_1_233)"/>
<path d="M15.7291 23.4802C15.3351 23.4802 14.9667 23.676 14.7463 24.0027L11.145 29.3406C10.6138 30.128 11.178 31.1892 12.1278 31.1892H28.3985C28.7926 31.1892 29.1609 30.9934 29.3813 30.6667L41.2097 13.1347C41.7409 12.3473 41.1767 11.286 40.2269 11.286H28.9674C28.5733 11.286 28.205 11.4819 27.9845 11.8085L20.4625 22.9577C20.2421 23.2844 19.8738 23.4802 19.4797 23.4802H15.7291Z" fill="url(#paint1_linear_1_233)"/>
<defs>
<linearGradient id="paint0_linear_1_233" x1="15.5619" y1="3.65502" x2="27.3655" y2="29.6955" gradientUnits="userSpaceOnUse">
<stop stop-color="#FF9900"/>
<stop offset="1" stop-color="#FF9900" stop-opacity="0"/>
</linearGradient>
<linearGradient id="paint1_linear_1_233" x1="28.0135" y1="29.7376" x2="14.9476" y2="3.71164" gradientUnits="userSpaceOnUse">
<stop stop-color="#0021AF"/>
<stop offset="1" stop-color="#0017A5" stop-opacity="0"/>
</linearGradient>
</defs>
</svg>
